<svg xmlns="http://www.w3.org/2000/svg" viewBox="0 0 256 256" width="256" height="256">
  <defs>
    <filter id="glow" x="-20%" y="-20%" width="140%" height="140%">
      <feGaussianBlur stdDeviation="2.5" result="blur"/>
      <feMerge>
        <feMergeNode in="blur"/>
        <feMergeNode in="SourceGraphic"/>
      </feMerge>
    </filter>
  </defs>

  <rect width="256" height="256" fill="#000000"/>

  <g filter="url(#glow)" stroke="#00ff41" fill="#00ff41" stroke-linecap="round">

    <!-- K vertical spine (founder / company backbone) -->
    <line x1="56" y1="22" x2="56" y2="234" stroke-width="20"/>

    <!-- K arms diverging from junction (C-suite split) -->
    <line x1="66" y1="128" x2="160" y2="26"  stroke-width="13"/>
    <line x1="66" y1="128" x2="160" y2="230" stroke-width="13"/>

    <!-- Junction node: root operator -->
    <circle cx="66" cy="128" r="9" stroke="none"/>

    <!-- Upper executive hub -->
    <circle cx="160" cy="26" r="6" stroke="none"/>

    <!-- Upper agent branches (3 C-suite / subagents) -->
    <line x1="160" y1="26" x2="212" y2="11"  stroke-width="2.5"/>
    <line x1="160" y1="26" x2="224" y2="33"  stroke-width="2.5"/>
    <line x1="160" y1="26" x2="212" y2="63"  stroke-width="2.5"/>

    <circle cx="216" cy="10"  r="5" stroke="none"/>
    <circle cx="228" cy="33"  r="5" stroke="none"/>
    <circle cx="216" cy="67"  r="5" stroke="none"/>

    <!-- Lower executive hub -->
    <circle cx="160" cy="230" r="6" stroke="none"/>

    <!-- Lower agent branches (3 C-suite / subagents) -->
    <line x1="160" y1="230" x2="212" y2="213" stroke-width="2.5"/>
    <line x1="160" y1="230" x2="224" y2="233" stroke-width="2.5"/>
    <line x1="160" y1="230" x2="212" y2="248" stroke-width="2.5"/>

    <circle cx="216" cy="211" r="5" stroke="none"/>
    <circle cx="228" cy="233" r="5" stroke="none"/>
    <circle cx="216" cy="249" r="5" stroke="none"/>
  </g>
</svg>
